HIERARCHY
ROOT Hips
{
  OFFSET 61.9788 92.4343 7.50036
  CHANNELS 6 Xposition Yposition Zposition Zrotation Xrotation Yrotation
  JOINT spine
  {
    OFFSET 0 7.4756 0.429885
    CHANNELS 3 Zrotation Xrotation Yrotation
    JOINT spine1
    {
      OFFSET 0 9.92301 0
      CHANNELS 3 Zrotation Xrotation Yrotation
      JOINT spine2
      {
        OFFSET 0 9.50804 0
        CHANNELS 3 Zrotation Xrotation Yrotation
        JOINT Neck
        {
          OFFSET 0 24.4111 1.16384
          CHANNELS 3 Zrotation Xrotation Yrotation
          JOINT Head
          {
            OFFSET 0 7.37523 0
            CHANNELS 3 Zrotation Xrotation Yrotation
            End Site
            {
              OFFSET 0 17.8522 -5.88741
            }
          }
        }
        JOINT RightShoulder
        {
          OFFSET -4.00356 10.2679 -0.557468
          CHANNELS 3 Zrotation Xrotation Yrotation
          JOINT RightArm
          {
            OFFSET 0 13.4673 0
            CHANNELS 3 Zrotation Xrotation Yrotation
            JOINT RightArmRoll
            {
              OFFSET 0 6.79858 0
              CHANNELS 3 Zrotation Xrotation Yrotation
              JOINT RightForeArm
              {
                OFFSET 0 19.8018 0
                CHANNELS 3 Zrotation Xrotation Yrotation
                JOINT RightForeArmRoll
                {
                  OFFSET 0 7.62905 0
                  CHANNELS 3 Zrotation Xrotation Yrotation
                  JOINT RightHand
                  {
                    OFFSET 0 15.3098 0
                    CHANNELS 3 Zrotation Xrotation Yrotation
                    End Site
                    {
                      OFFSET 0 0 0
                    }
                  }
                }
              }
            }
          }
        }
        JOINT LeftShoulder
        {
          OFFSET 4.00356 10.2679 -0.557468
          CHANNELS 3 Zrotation Xrotation Yrotation
          JOINT LeftArm
          {
            OFFSET 0 13.4673 0
            CHANNELS 3 Zrotation Xrotation Yrotation
            JOINT LeftArmRoll
            {
              OFFSET 0 6.79858 0
              CHANNELS 3 Zrotation Xrotation Yrotation
              JOINT LeftForeArm
              {
                OFFSET 0 19.8018 0
                CHANNELS 3 Zrotation Xrotation Yrotation
                JOINT LeftForeArmRoll
                {
                  OFFSET 0 7.62906 0
                  CHANNELS 3 Zrotation Xrotation Yrotation
                  JOINT LeftHand
                  {
                    OFFSET 0 15.3098 0
                    CHANNELS 3 Zrotation Xrotation Yrotation
                    End Site
                    {
                      OFFSET 0 0 0
                    }
                  }
                }
              }
            }
          }
        }
      }
    }
  }
  JOINT RightUpLeg
  {
    OFFSET -6.62609 -1.21505 -1.01927
    CHANNELS 3 Zrotation Xrotation Yrotation
    JOINT RightUpLegRoll
    {
      OFFSET 0 17.9517 0
      CHANNELS 3 Zrotation Xrotation Yrotation
      JOINT RightLeg
      {
        OFFSET 0 -22.2304 0
        CHANNELS 3 Zrotation Xrotation Yrotation
        JOINT RightLegRoll
        {
          OFFSET 0 22.3032 0
          CHANNELS 3 Zrotation Xrotation Yrotation
          JOINT RightFoot
          {
            OFFSET 0 18.5636 0
            CHANNELS 3 Zrotation Xrotation Yrotation
            JOINT RightToeBase
            {
              OFFSET 0 15.5183 0
              CHANNELS 3 Zrotation Xrotation Yrotation
              End Site
              {
                OFFSET 0.00657761 7.51538 -0.866263
              }
            }
          }
        }
      }
    }
  }
  JOINT LeftUpLeg
  {
    OFFSET 6.62609 -1.21505 -1.01927
    CHANNELS 3 Zrotation Xrotation Yrotation
    JOINT LeftUpLegRoll
    {
      OFFSET 0 17.9518 0
      CHANNELS 3 Zrotation Xrotation Yrotation
      JOINT LeftLeg
      {
        OFFSET 0 22.2303 0
        CHANNELS 3 Zrotation Xrotation Yrotation
        JOINT LeftLegRoll
        {
          OFFSET 0 22.5093 0
          CHANNELS 3 Zrotation Xrotation Yrotation
          JOINT LeftFoot
          {
            OFFSET 0 18.3575 0
            CHANNELS 3 Zrotation Xrotation Yrotation
            JOINT LeftToeBase
            {
              OFFSET 0 15.5183 0
              CHANNELS 3 Zrotation Xrotation Yrotation
              End Site
              {
                OFFSET -0.029478 7.51539 -0.866263
              }
            }
          }
        }
      }
    }
  }
}
MOTION
Frames: 10
Frame Time: 0.00208333
58.4501 92.6689 6.63185 1.38803 -5.93601 0.660436 -0.351481 -0.745336 0.00618514 -0.703465 2.5119 0.0534566 -0.704861 4.15689 0.0652999 -1.06216 5.41589 -2.85371 11.9606 10.1552 -2.97543 6.71164 -16.7387 -16.892 -0.106629 30.7943 104.74 -1.96672e-007 -4.80975e-007 -8.20436e-006 2.69198 53.3761 -0.552406 -3.38706e-006 -2.82897e-007 -3.0001 8.02976 -4.95143 0.697664 -79.7568 -0.42407 2.54856 -92.6712 9.30961 -18.9758 -9.91913e-007 1.63622e-006 2.95431e-006 -7.80663 0.0623688 0.765729 -2.07906e-006 -1.30361e-006 3.01597 -8.03002 -4.95139 -0.69764 173.789 7.58129 4.61112 180 7.01536e-015 178.877 176.407 27.1078 179.911 -3.65438e-006 3.13413e-006 0.413492 -19.0832 68.4283 19.8981 8.35741 29.9476 -2.42781 175.869 0.0580249 4.63103 -1.07169e-005 -4.64205e-006 -1.09919 -3.86674 -10.2195 -0.0840287 -2.57371e-006 -7.3319e-006 -0.146228 20.5519 69.976 -21.3711 -8.13649 25.2326 3.48773 
58.4008 92.6808 6.67575 1.38401 -5.93126 0.631309 -0.351344 -0.744339 0.00659901 -0.703192 2.51389 0.054278 -0.704598 4.15888 0.0661174 -1.07818 5.38994 -2.8463 11.977 10.1585 -2.97114 6.71732 -16.7253 -16.8689 0.0369323 30.8396 104.678 -1.96672e-007 -4.80975e-007 -8.20436e-006 2.48481 53.0084 -0.460054 -3.38706e-006 -2.82897e-007 -3.00009 8.02976 -4.95143 0.697664 -79.7756 -0.422531 2.54983 -92.6528 9.32121 -18.9774 -9.91913e-007 1.63622e-006 2.95431e-006 -7.80692 0.0623927 0.765248 -2.07906e-006 -1.30361e-006 3.01594 -8.03002 -4.95139 -0.69764 173.787 7.59259 4.60938 180 7.01536e-015 178.878 176.41 27.1048 179.91 -3.65438e-006 3.13413e-006 0.413419 -19.0829 68.4279 19.8977 8.35539 29.9172 -2.42157 175.869 0.0604504 4.63083 -1.07169e-005 -4.64205e-006 -1.09894 -3.86868 -10.214 -0.0844272 -2.57371e-006 -7.3319e-006 -0.146295 20.5504 69.9747 -21.3701 -8.13649 25.2326 3.48773 
58.4094 92.6764 6.66674 1.38101 -5.92398 0.604453 -0.351516 -0.743833 0.00672329 -0.703514 2.5149 0.0545487 -0.704923 4.15989 0.0663939 -1.09237 5.36394 -2.83978 11.9929 10.1625 -2.96746 6.72286 -16.7125 -16.8468 0.184383 30.8849 104.611 -1.96672e-007 -4.80975e-007 -8.20436e-006 2.27658 52.6339 -0.369075 -3.38706e-006 -2.82897e-007 -3.00009 8.02976 -4.95143 0.697664 -79.793 -0.421074 2.551 -92.6362 9.33227 -18.9793 -9.91913e-007 1.63622e-006 2.95431e-006 -7.8066 0.0624165 0.764634 -2.07906e-006 -1.30361e-006 3.01592 -8.03002 -4.95139 -0.69764 173.784 7.607 4.60921 180 7.01536e-015 178.878 176.412 27.103 179.909 -3.65438e-006 3.13413e-006 0.413346 -19.083 68.4279 19.8977 8.35342 29.8874 -2.4154 175.866 0.0662209 4.63154 -1.07169e-005 -4.64205e-006 -1.09873 -3.87092 -10.2093 -0.0848065 -2.57371e-006 -7.3319e-006 -0.146364 20.5498 69.9738 -21.369 -8.13649 25.2326 3.48773 
58.4492 92.6684 6.63421 1.37871 -5.91426 0.579621 -0.351908 -0.743782 0.006594 -0.704241 2.515 0.0543337 -0.705647 4.16 0.0661912 -1.10571 5.33697 -2.83399 12.0088 10.1679 -2.96447 6.72808 -16.7002 -16.8255 0.336499 30.9293 104.542 -1.96672e-007 -4.80975e-007 -8.20436e-006 2.06454 52.2502 -0.277846 -3.38706e-006 -2.82897e-007 -3.00009 8.02976 -4.95143 0.697664 -79.81 -0.419617 2.55212 -92.6204 9.34294 -18.9818 -9.91913e-007 1.63622e-006 2.95431e-006 -7.80585 0.0624402 0.76388 -2.07906e-006 -1.30361e-006 3.0159 -8.03002 -4.95139 -0.69764 173.778 7.62436 4.61017 180 7.01536e-015 178.878 176.413 27.1023 179.907 -3.65438e-006 3.13413e-006 0.413273 -19.0833 68.4282 19.8981 8.35144 29.8577 -2.40936 175.863 0.074976 4.63317 -1.07169e-005 -4.64205e-006 -1.09849 -3.87311 -10.205 -0.0851341 -2.57371e-006 -7.3319e-006 -0.146435 20.549 69.9727 -21.3672 -8.13649 25.2326 3.48773 
58.4364 92.676 6.64604 1.37701 -5.90243 0.556592 -0.352497 -0.744127 0.0062441 -0.705332 2.51431 0.0536966 -0.706729 4.1593 0.0655722 -1.11811 5.30922 -2.82886 12.0248 10.1744 -2.96207 6.73301 -16.6884 -16.8052 0.49302 30.973 104.469 -1.96672e-007 -4.80975e-007 -8.20436e-006 1.84966 51.8582 -0.186869 -3.38706e-006 -2.82897e-007 -3.00009 8.02976 -4.95143 0.697664 -79.8263 -0.418182 2.55318 -92.6053 9.35324 -18.9846 -9.91913e-007 1.63622e-006 2.95431e-006 -7.80468 0.0624638 0.763009 -2.07906e-006 -1.30361e-006 3.01588 -8.03002 -4.95139 -0.69764 173.772 7.64423 4.61211 180 7.01536e-015 178.878 176.413 27.1025 179.906 -3.65438e-006 3.13413e-006 0.413199 -19.0838 68.4289 19.8986 8.34948 29.8282 -2.40343 175.859 0.0863301 4.63559 -1.07169e-005 -4.64205e-006 -1.09824 -3.87523 -10.2012 -0.0854163 -2.57371e-006 -7.3319e-006 -0.146508 20.5483 69.9715 -21.3649 -8.13649 25.2326 3.48773 
58.4593 92.6704 6.63025 1.3758 -5.8888 0.535144 -0.353259 -0.744813 0.00570655 -0.706749 2.51294 0.0527014 -0.708132 4.15793 0.0646004 -1.12947 5.28092 -2.82434 12.0406 10.1818 -2.96016 6.73772 -16.6771 -16.7857 0.653665 31.0166 104.392 -1.96672e-007 -4.80975e-007 -8.20436e-006 1.63287 51.4587 -0.0966225 -3.38706e-006 -2.82897e-007 -3.00009 8.02976 -4.95143 0.697664 -79.8421 -0.416795 2.55421 -92.591 9.36317 -18.9879 -9.91912e-007 1.63622e-006 2.95431e-006 -7.80314 0.0624873 0.762043 -2.07906e-006 -1.30361e-006 3.01587 -8.03002 -4.95139 -0.69764 173.764 7.66619 4.61485 180 7.01537e-015 178.879 176.413 27.1033 179.905 -3.65438e-006 3.13413e-006 0.413126 -19.0846 68.4298 19.8995 8.34752 29.7988 -2.39759 175.853 0.0998973 4.63869 -1.07169e-005 -4.64205e-006 -1.09798 -3.87729 -10.1977 -0.0856589 -2.57371e-006 -7.3319e-006 -0.146584 20.5476 69.9702 -21.3623 -8.13649 25.2326 3.48773 
58.457 92.6705 6.63171 1.37496 -5.87371 0.515055 -0.354169 -0.745782 0.0050143 -0.70845 2.511 0.0514118 -0.709817 4.156 0.0633387 -1.13967 5.25226 -2.82035 12.0561 10.1898 -2.95861 6.74226 -16.6662 -16.7668 0.818171 31.0604 104.311 -1.96672e-007 -4.80975e-007 -8.20436e-006 1.41508 51.0525 -0.00756054 -3.38706e-006 -2.82897e-007 -3.00009 8.02976 -4.95143 0.697664 -79.8573 -0.415477 2.55519 -92.5773 9.37275 -18.9915 -9.91913e-007 1.63622e-006 2.95431e-006 -7.80124 0.0625107 0.761004 -2.07906e-006 -1.30361e-006 3.01586 -8.03002 -4.95139 -0.69764 173.756 7.6898 4.61822 180 7.01537e-015 178.879 176.412 27.1047 179.904 -3.65438e-006 3.13413e-006 0.413052 -19.0856 68.431 19.9005 8.34558 29.7696 -2.39182 175.848 0.115292 4.64233 -1.07169e-005 -4.64205e-006 -1.09772 -3.87931 -10.1947 -0.085868 -2.57371e-006 -7.3319e-006 -0.146662 20.5471 69.969 -21.3594 -8.13649 25.2326 3.48773 
58.4516 92.6695 6.6147 1.3744 -5.85746 0.496103 -0.355203 -0.746977 0.00420031 -0.710397 2.50862 0.0498917 -0.711744 4.15361 0.0618505 -1.14863 5.22344 -2.81685 12.0713 10.1982 -2.95734 6.74667 -16.6556 -16.7486 0.98627 31.105 104.226 -1.96672e-007 -4.80975e-007 -8.20436e-006 1.19714 50.6405 0.0798877 -3.38706e-006 -2.82897e-007 -3.00008 8.02976 -4.95143 0.697664 -79.8717 -0.414252 2.55614 -92.5645 9.38199 -18.9953 -9.91913e-007 1.63622e-006 2.95431e-006 -7.79904 0.0625339 0.759915 -2.07906e-006 -1.30361e-006 3.01586 -8.03002 -4.95139 -0.69764 173.747 7.71465 4.62205 180 7.01537e-015 178.879 176.41 27.1064 179.903 -3.65438e-006 3.13413e-006 0.412979 -19.0866 68.4323 19.9016 8.34366 29.7407 -2.3861 175.841 0.132128 4.6464 -1.07169e-005 -4.64205e-006 -1.09747 -3.88127 -10.1919 -0.0860498 -2.57371e-006 -7.3319e-006 -0.146741 20.5468 69.9678 -21.3564 -8.13649 25.2326 3.48773 
58.4605 92.6706 6.61361 1.374 -5.84038 0.478067 -0.356336 -0.748341 0.00329754 -0.712549 2.50589 0.048205 -0.713874 4.15089 0.0601989 -1.15623 5.19467 -2.81378 12.0859 10.2066 -2.95622 6.75101 -16.6454 -16.731 1.1577 31.1507 104.136 -1.96672e-007 -4.80975e-007 -8.20436e-006 0.979923 50.2236 0.165315 -3.38706e-006 -2.82897e-007 -3.00008 8.02976 -4.95143 0.697664 -79.8855 -0.413144 2.55707 -92.5524 9.3909 -18.9994 -9.91913e-007 1.63622e-006 2.95431e-006 -7.79655 0.062557 0.758796 -2.07906e-006 -1.30361e-006 3.01586 -8.03002 -4.95139 -0.69764 173.738 7.7403 4.62617 180 7.01537e-015 178.879 176.408 27.1083 179.902 -3.65438e-006 3.13413e-006 0.412905 -19.0877 68.4337 19.9028 8.34177 29.712 -2.38041 175.834 0.150021 4.65078 -1.07169e-005 -4.64205e-006 -1.09724 -3.88319 -10.1895 -0.0862101 -2.57371e-006 -7.3319e-006 -0.146823 20.5468 69.9668 -21.3534 -8.13649 25.2326 3.48773 
58.4895 92.6664 6.60711 1.37365 -5.8228 0.460723 -0.357545 -0.749818 0.00233894 -0.714867 2.50294 0.0464153 -0.71617 4.14793 0.058447 -1.16237 5.16616 -2.81106 12.1 10.2148 -2.95515 6.75532 -16.6355 -16.7138 1.33223 31.1979 104.041 -1.96672e-007 -4.80975e-007 -8.20436e-006 0.76423 49.8025 0.248338 -3.38706e-006 -2.82897e-007 -3.00008 8.02976 -4.95143 0.697664 -79.8985 -0.412175 2.55798 -92.541 9.39949 -19.0036 -9.91913e-007 1.63622e-006 2.95431e-006 -7.79381 0.0625799 0.757672 -2.07906e-006 -1.30361e-006 3.01586 -8.03002 -4.95139 -0.69764 173.728 7.76632 4.63041 180 7.01537e-015 178.879 176.406 27.1102 179.901 -3.65438e-006 3.13413e-006 0.412832 -19.0889 68.4352 19.9041 8.33989 29.6837 -2.37473 175.827 0.168584 4.65534 -1.07169e-005 -4.64205e-006 -1.09704 -3.88506 -10.1874 -0.0863551 -2.57371e-006 -7.3319e-006 -0.146907 20.5472 69.9659 -21.3504 -8.13649 25.2326 3.48773 
